<svg xmlns="http://www.w3.org/2000/svg" viewBox="0 0 296.4 49.7">
  <path fill="none" d="M.004.005h296.4v49.7H.004z"/>
  <path d="M26.225 32.415v2.9h-12.2v-21.2h3.5v18.4l8.7-.1z" fill="#fafafa"/>
  <g fill="#fafafa" stroke-width="5">
    <path d="M156.315 30.571c.2 0 .3.1.4.2l1.3 1.5c-.9 1-2 1.9-3.2 2.4-1.4.6-3 .9-4.5.9-1.4 0-2.8-.3-4.2-.8-1.2-.5-2.3-1.3-3.2-2.2-.9-1-1.6-2.2-2-3.5-.5-1.4-.7-2.9-.7-4.3 0-1.5.3-3 .8-4.3.5-1.3 1.2-2.4 2.1-3.5.9-1 2-1.7 3.3-2.2 1.4-.6 2.8-.8 4.3-.8 1.4 0 2.8.2 4.1.7 1.1.5 2.1 1.1 3 2l-1.2 1.6-.3.3c-.1.1-.3.1-.4.1-.3 0-.5-.1-.7-.3-.3-.2-.5-.4-1-.6-.5-.2-.9-.4-1.4-.6-.7-.2-1.5-.3-2.2-.3-.9 0-1.9.2-2.8.5-.8.3-1.6.9-2.2 1.5-.6.7-1.1 1.6-1.4 2.5-.4 1.1-.6 2.2-.5 3.3 0 1.1.2 2.3.5 3.4.3.9.8 1.8 1.4 2.5.6.7 1.4 1.2 2.2 1.5.8.4 1.7.5 2.7.5.5 0 1.1 0 1.6-.1l1.3-.3c.4-.2.8-.4 1.2-.5.4-.2.8-.5 1.1-.8.1-.3.3-.3.6-.3zM213.715 32.471c.8 0 1.5-.2 2.2-.4.6-.2 1.2-.6 1.6-1.2.5-.5.8-1.1 1.1-1.8.3-.7.4-1.5.4-2.3v-12.7h3.5v12.8c0 1.2-.2 2.4-.6 3.5-.4 1-.9 2-1.7 2.8-.8.8-1.7 1.4-2.8 1.8-2.4.8-4.9.8-7.3 0-1-.4-1.9-1-2.8-1.8-.7-.8-1.3-1.7-1.7-2.8-.4-1.1-.6-2.3-.6-3.5v-12.8h3.5v12.8c0 .8.1 1.6.4 2.3.2.7.5 1.3 1 1.8.4.5 1 .9 1.6 1.2.6.2 1.4.3 2.2.3zM281.015 17.671c-.1.2-.2.3-.4.4-.1.1-.3.1-.4.1-.2 0-.4-.1-.6-.3-.3-.2-.6-.4-.9-.5-.4-.2-.8-.4-1.2-.5-.5-.2-1.1-.3-1.7-.3-.5 0-1.1.1-1.6.2l-1.2.6c-.3.3-.5.6-.7 1-.2.4-.3.8-.3 1.2 0 .5.2.9.4 1.3.3.4.7.7 1.2.9.5.3 1.1.5 1.6.7.6.2 1.3.4 1.9.6.6.2 1.3.4 1.9.7.6.2 1.1.6 1.6 1.1.4.5.8 1 1.1 1.5.3.7.5 1.5.4 2.2 0 .9-.2 1.8-.4 2.7-.3.8-.8 1.5-1.4 2.1-.7.6-1.4 1.1-2.3 1.4-1 .4-2 .6-3.1.5-.7 0-1.3-.1-2-.2l-1.9-.5c-.6-.2-1.2-.5-1.7-.9-.5-.3-1-.7-1.3-1.2l1-1.7c.1-.2.2-.3.4-.4.1-.1.3-.1.4-.1.3 0 .5.1.7.4.3.2.6.4 1 .7.5.3.9.5 1.4.7.6.2 1.3.3 2 .4 1.1.1 2.1-.2 2.9-.9.7-.6 1.1-1.5 1.1-2.5 0-.5-.2-1.1-.4-1.5-.3-.4-.7-.7-1.2-1-.5-.3-1-.5-1.6-.6l-1.9-.5c-.6-.2-1.3-.4-1.9-.7-.6-.2-1.1-.6-1.6-1.1-.5-.5-.8-1-1.2-1.6-.3-.8-.5-1.6-.4-2.4 0-.8.2-1.5.4-2.2.3-.7.8-1.4 1.3-2 .6-.6 1.3-1 2.1-1.3.9-.4 1.9-.6 2.9-.5 1.1 0 2.3.2 3.4.5 1 .4 1.9.9 2.7 1.6l-.5 1.9z"/>
  </g>
  <g fill="#fafafa">
    <path d="M69.478 48.856l-13.3-23.1 13.3-23h26.6l13.3 23-13.3 23.1h-26.6z" opacity=".1"/>
    <path d="M73.678 41.656l-9.1-15.9 9.1-15.8h18.3l9.2 15.8-9.2 15.9h-18.3z" opacity=".3"/>
    <path d="M77.278 35.356l-5.5-9.6 5.5-9.5h11l5.6 9.5-5.6 9.6h-11z"/>
  </g>
</svg>
